{
  "accessors": [
    {
      "bufferView": 2,
      "componentType": 5126,
      "count": 7082,
      "max": [
        0.3067854940891266,
        0.00745236873626709,
        1.2310748100280762
      ],
      "min": [
        -0.2966650724411011,
        -0.08073636144399643,
        0.3254184126853943
      ],
      "type": "VEC3"
    },
    {
      "bufferView": 2,
      "byteOffset": 84984,
      "componentType": 5126,
      "count": 7082,
      "max": [
        0.9872186779975891,
        -0.15901592373847961,
        0.9870408177375793
      ],
      "min": [
        -0.9872186779975891,
        -0.9998121857643127,
        -0.9872757792472839
      ],
      "type": "VEC3"
    },
    {
      "bufferView": 3,
      "componentType": 5126,
      "count": 7082,
      "max": [
        0.9999767541885376,
        0.987014651298523,
        0.9999985098838806,
        1.0
      ],
      "min": [
        -0.9999980926513672,
        -0.9866288900375366,
        -0.9999992251396179,
        1.0
      ],
      "type": "VEC4"
    },
    {
      "bufferView": 1,
      "componentType": 5126,
      "count": 7082,
      "max": [
        0.9889833927154541,
        0.9989351630210876
      ],
      "min": [
        0.0010632872581481934,
        0.0010662592248991132
      ],
      "type": "VEC2"
    },
    {
      "bufferView": 0,
      "componentType": 5125,
      "count": 30978,
      "type": "SCALAR"
    },
    {
      "bufferView": 2,
      "byteOffset": 169968,
      "componentType": 5126,
      "count": 180,
      "max": [
        0.28428915143013,
        -0.07950310409069061,
        1.431727409362793
      ],
      "min": [
        -0.2744377851486206,
        -0.081878162920475,
        1.257156252861023
      ],
      "type": "VEC3"
    },
    {
      "bufferView": 2,
      "byteOffset": 172128,
      "componentType": 5126,
      "count": 180,
      "max": [
        1.0,
        0.0,
        1.0
      ],
      "min": [
        -1.0,
        -1.0,
        -1.0
      ],
      "type": "VEC3"
    },
    {
      "bufferView": 3,
      "byteOffset": 113312,
      "componentType": 5126,
      "count": 180,
      "max": [
        1.0,
        3.191413711078894e-08,
        0.7070437669754028,
        1.0
      ],
      "min": [
        -0.7928074598312378,
        -0.9999980330467224,
        -0.714603841304779,
        1.0
      ],
      "type": "VEC4"
    },
    {
      "bufferView": 1,
      "byteOffset": 56656,
      "componentType": 5126,
      "count": 180,
      "max": [
        0.9883427619934082,
        0.737565815448761
      ],
      "min": [
        0.28797537088394165,
        0.0010622432455420494
      ],
      "type": "VEC2"
    },
    {
      "bufferView": 0,
      "byteOffset": 123912,
      "componentType": 5125,
      "count": 540,
      "type": "SCALAR"
    },
    {
      "bufferView": 2,
      "byteOffset": 174288,
      "componentType": 5126,
      "count": 159,
      "max": [
        0.22952549159526825,
        0.04482826963067055,
        0.6159356832504272
      ],
      "min": [
        -0.21940498054027557,
        0.03420548141002655,
        0.40886884927749634
      ],
      "type": "VEC3"
    },
    {
      "bufferView": 2,
      "byteOffset": 176196,
      "componentType": 5126,
      "count": 159,
      "max": [
        1.0,
        1.0,
        1.0
      ],
      "min": [
        -1.0,
        -3.684390685521066e-05,
        -1.0
      ],
      "type": "VEC3"
    },
    {
      "bufferView": 3,
      "byteOffset": 116192,
      "componentType": 5126,
      "count": 159,
      "max": [
        0.9944573044776917,
        0.9850766062736511,
        0.9907709360122681,
        1.0
      ],
      "min": [
        -1.0,
        -1.0,
        -0.9912233948707581,
        1.0
      ],
      "type": "VEC4"
    },
    {
      "bufferView": 1,
      "byteOffset": 58096,
      "componentType": 5126,
      "count": 159,
      "max": [
        0.9826874732971191,
        0.8296023011207581
      ],
      "min": [
        0.13953101634979248,
        0.0010682110441848636
      ],
      "type": "VEC2"
    },
    {
      "bufferView": 0,
      "byteOffset": 126072,
      "componentType": 5125,
      "count": 504,
      "type": "SCALAR"
    },
    {
      "bufferView": 2,
      "byteOffset": 178104,
      "componentType": 5126,
      "count": 1038,
      "max": [
        0.3231116235256195,
        0.044828321784734726,
        1.4724746942520142
      ],
      "min": [
        -0.3129911422729492,
        -0.03814852982759476,
        0.30722934007644653
      ],
      "type": "VEC3"
    },
    {
      "bufferView": 2,
      "byteOffset": 190560,
      "componentType": 5126,
      "count": 1038,
      "max": [
        1.0,
        1.0,
        1.0
      ],
      "min": [
        -1.0,
        -1.0,
        -1.0
      ],
      "type": "VEC3"
    },
    {
      "bufferView": 3,
      "byteOffset": 118736,
      "componentType": 5126,
      "count": 1038,
      "max": [
        1.0,
        1.0,
        0.9999984502792358,
        1.0
      ],
      "min": [
        -0.9974534511566162,
        -1.0,
        -1.0,
        1.0
      ],
      "type": "VEC4"
    },
    {
      "bufferView": 1,
      "byteOffset": 59368,
      "componentType": 5126,
      "count": 1038,
      "max": [
        0.9701357483863831,
        0.8920985460281372
      ],
      "min": [
        0.0010707676410675049,
        0.0010657086968421936
      ],
      "type": "VEC2"
    },
    {
      "bufferView": 0,
      "byteOffset": 128088,
      "componentType": 5125,
      "count": 3936,
      "type": "SCALAR"
    },
    {
      "bufferView": 2,
      "byteOffset": 203016,
      "componentType": 5126,
      "count": 488,
      "max": [
        0.3067854940891266,
        0.0074523864313960075,
        1.4542855024337769
      ],
      "min": [
        -0.2966649830341339,
        -0.08205483108758926,
        1.2348129749298096
      ],
      "type": "VEC3"
    },
    {
      "bufferView": 2,
      "byteOffset": 208872,
      "componentType": 5126,
      "count": 488,
      "max": [
        1.0,
        3.086602737312205e-05,
        1.0
      ],
      "min": [
        -1.0,
        -0.9998700022697449,
        -1.0
      ],
      "type": "VEC3"
    },
    {
      "bufferView": 3,
      "byteOffset": 135344,
      "componentType": 5126,
      "count": 488,
      "max": [
        0.9999999403953552,
        0.9875683188438416,
        0.9964942336082458,
        1.0
      ],
      "min": [
        -0.9984832406044006,
        -0.9999999403953552,
        -0.8418896198272705,
        1.0
      ],
      "type": "VEC4"
    },
    {
      "bufferView": 1,
      "byteOffset": 67672,
      "componentType": 5126,
      "count": 488,
      "max": [
        0.9793719053268433,
        0.6309121251106262
      ],
      "min": [
        0.2827816903591156,
        0.0010695068631321192
      ],
      "type": "VEC2"
    },
    {
      "bufferView": 0,
      "byteOffset": 143832,
      "componentType": 5125,
      "count": 1944,
      "type": "SCALAR"
    }
  ],
  "asset": {
    "extras": {
      "author": "re1monsen (https://sketchfab.com/re1monsen)",
      "license": "CC-BY-4.0 (http://creativecommons.org/licenses/by/4.0/)",
      "source": "https://sketchfab.com/3d-models/calculator-c78f13f842714863800899014754392a",
      "title": "Calculator"
    },
    "generator": "Sketchfab-12.57.0",
    "version": "2.0"
  },
  "bufferViews": [
    {
      "buffer": 0,
      "byteLength": 151608,
      "name": "floatBufferViews",
      "target": 34963
    },
    {
      "buffer": 0,
      "byteLength": 71576,
      "byteOffset": 151608,
      "byteStride": 8,
      "name": "floatBufferViews",
      "target": 34962
    },
    {
      "buffer": 0,
      "byteLength": 214728,
      "byteOffset": 223184,
      "byteStride": 12,
      "name": "floatBufferViews",
      "target": 34962
    },
    {
      "buffer": 0,
      "byteLength": 143152,
      "byteOffset": 437912,
      "byteStride": 16,
      "name": "floatBufferViews",
      "target": 34962
    }
  ],
  "buffers": [
    {
      "byteLength": 581064,
      "uri": "scene.bin"
    }
  ],
  "images": [
    {
      "uri": "textures/calc_baseColor.jpeg"
    },
    {
      "uri": "textures/calc_metallicRoughness.png"
    },
    {
      "uri": "textures/calc_emissive.jpeg"
    },
    {
      "uri": "textures/calc_normal.png"
    }
  ],
  "materials": [
    {
      "doubleSided": true,
      "emissiveFactor": [
        1.0,
        1.0,
        1.0
      ],
      "emissiveTexture": {
        "index": 2
      },
      "name": "calc",
      "normalTexture": {
        "index": 3
      },
      "occlusionTexture": {
        "index": 1
      },
      "pbrMetallicRoughness": {
        "baseColorTexture": {
          "index": 0
        },
        "metallicRoughnessTexture": {
          "index": 1
        }
      }
    }
  ],
  "meshes": [
    {
      "name": "calc.001_low_calc_0",
      "primitives": [
        {
          "attributes": {
            "NORMAL": 1,
            "POSITION": 0,
            "TANGENT": 2,
            "TEXCOORD_0": 3
          },
          "indices": 4,
          "material": 0,
          "mode": 4
        }
      ]
    },
    {
      "name": "calc.002_low_calc_0",
      "primitives": [
        {
          "attributes": {
            "NORMAL": 6,
            "POSITION": 5,
            "TANGENT": 7,
            "TEXCOORD_0": 8
          },
          "indices": 9,
          "material": 0,
          "mode": 4
        }
      ]
    },
    {
      "name": "calc_low_calc_0",
      "primitives": [
        {
          "attributes": {
            "NORMAL": 11,
            "POSITION": 10,
            "TANGENT": 12,
            "TEXCOORD_0": 13
          },
          "indices": 14,
          "material": 0,
          "mode": 4
        }
      ]
    },
    {
      "name": "calc.003_low_calc_0",
      "primitives": [
        {
          "attributes": {
            "NORMAL": 16,
            "POSITION": 15,
            "TANGENT": 17,
            "TEXCOORD_0": 18
          },
          "indices": 19,
          "material": 0,
          "mode": 4
        }
      ]
    },
    {
      "name": "calc.004_low_calc_0",
      "primitives": [
        {
          "attributes": {
            "NORMAL": 21,
            "POSITION": 20,
            "TANGENT": 22,
            "TEXCOORD_0": 23
          },
          "indices": 24,
          "material": 0,
          "mode": 4
        }
      ]
    }
  ],
  "nodes": [
    {
      "children": [
        1
      ],
      "matrix": [
        0.16369761526584625,
        0.0,
        0.0,
        0.0,
        0.0,
        3.6348172308874605e-17,
        -0.16369761526584625,
        0.0,
        0.0,
        0.16369761526584625,
        3.6348172308874605e-17,
        0.0,
        0.0,
        1.2057351783667514e-09,
        3.110384519389191e-11,
        1.0
      ],
      "name": "Sketchfab_model"
    },
    {
      "children": [
        2
      ],
      "matrix": [
        0.009999999776482582,
        0.0,
        0.0,
        0.0,
        0.0,
        0.0,
        0.009999999776482582,
        0.0,
        0.0,
        -0.009999999776482582,
        0.0,
        0.0,
        0.0,
        0.0,
        0.0,
        1.0
      ],
      "name": "3905ba3ec092475cb53a2fc5330ccf91.fbx"
    },
    {
      "children": [
        3,
        5,
        7,
        9,
        11
      ],
      "name": "RootNode"
    },
    {
      "children": [
        4
      ],
      "matrix": [
        100.0,
        0.0,
        0.0,
        0.0,
        0.0,
        -1.629206793918314e-05,
        -99.99999999999868,
        0.0,
        0.0,
        99.99999999999868,
        -1.629206793918314e-05,
        0.0,
        0.0,
        0.0,
        0.0,
        1.0
      ],
      "name": "calc.001_low"
    },
    {
      "mesh": 0,
      "name": "calc.001_low_calc_0"
    },
    {
      "children": [
        6
      ],
      "matrix": [
        100.0,
        0.0,
        0.0,
        0.0,
        0.0,
        -1.629206793918314e-05,
        -99.99999999999868,
        0.0,
        0.0,
        99.99999999999868,
        -1.629206793918314e-05,
        0.0,
        0.0,
        0.0,
        0.0,
        1.0
      ],
      "name": "calc.002_low"
    },
    {
      "mesh": 1,
      "name": "calc.002_low_calc_0"
    },
    {
      "children": [
        8
      ],
      "matrix": [
        100.0,
        0.0,
        0.0,
        0.0,
        0.0,
        -1.629206793918314e-05,
        -99.99999999999868,
        0.0,
        0.0,
        99.99999999999868,
        -1.629206793918314e-05,
        0.0,
        0.0,
        0.0,
        0.0,
        1.0
      ],
      "name": "calc_low"
    },
    {
      "mesh": 2,
      "name": "calc_low_calc_0"
    },
    {
      "children": [
        10
      ],
      "matrix": [
        100.0,
        0.0,
        0.0,
        0.0,
        0.0,
        -1.629206793918314e-05,
        -99.99999999999868,
        0.0,
        0.0,
        99.99999999999868,
        -1.629206793918314e-05,
        0.0,
        0.0,
        0.0,
        0.0,
        1.0
      ],
      "name": "calc.003_low"
    },
    {
      "mesh": 3,
      "name": "calc.003_low_calc_0"
    },
    {
      "children": [
        12
      ],
      "matrix": [
        100.0,
        0.0,
        0.0,
        0.0,
        0.0,
        -1.629206793918314e-05,
        -99.99999999999868,
        0.0,
        0.0,
        99.99999999999868,
        -1.629206793918314e-05,
        0.0,
        0.0,
        0.0,
        0.0,
        1.0
      ],
      "name": "calc.004_low"
    },
    {
      "mesh": 4,
      "name": "calc.004_low_calc_0"
    }
  ],
  "samplers": [
    {
      "magFilter": 9729,
      "minFilter": 9987,
      "wrapS": 10497,
      "wrapT": 10497
    }
  ],
  "scene": 0,
  "scenes": [
    {
      "name": "Sketchfab_Scene",
      "nodes": [
        0
      ]
    }
  ],
  "textures": [
    {
      "sampler": 0,
      "source": 0
    },
    {
      "sampler": 0,
      "source": 1
    },
    {
      "sampler": 0,
      "source": 2
    },
    {
      "sampler": 0,
      "source": 3
    }
  ]
}
